<?xml version="1.0" encoding="UTF-8"?>
<svg id="Layer_2" data-name="Layer 2" xmlns="http://www.w3.org/2000/svg" xmlns:xlink="http://www.w3.org/1999/xlink" viewBox="0 0 102.55 102.62">
  <defs>
    <style>
      .cls-1 {
        fill: url(#rainbow-gradient);
      }
    </style>
    <linearGradient id="rainbow-gradient" x1="6.81" y1="76.97" x2="95.69" y2="25.65" gradientUnits="userSpaceOnUse">
      <stop offset="0" stop-color="#FF89FF"/>
      <stop offset=".35" stop-color="#FFD843"/>
      <stop offset=".68" stop-color="#00EEBE"/>
      <stop offset="1" stop-color="#7A3BF7"/>
    </linearGradient>
  </defs>
  <g id="Layer_1-2" data-name="Layer 1">
    <path class="cls-1" d="M51.25,0c-13.16,0-25.16,4.96-34.25,13.11l28.12,13.11-4.82-13.25,4.7-1.71,7.74,21.27-21.28,7.75-1.71-4.7,13.27-4.83-29.8-13.88C5.49,25.39.59,36.53,0,48.81h74.92l-9.88-9.88,3.53-3.54,16.01,16.01-16.01,16.01-3.53-3.53,10.06-10.07H0c.59,12.27,5.49,23.42,13.22,31.95l29.78-13.89-13.26-4.82,1.71-4.7,21.28,7.74-7.74,21.28-4.7-1.72,4.82-13.25-28.12,13.11c9.08,8.15,21.08,13.11,34.24,13.11,28.34,0,51.31-22.97,51.31-51.31S79.58,0,51.25,0Z"/>
  </g>
</svg>