<?xml version="1.0" encoding="UTF-8"?>
<svg id="Layer_2" xmlns="http://www.w3.org/2000/svg" xmlns:xlink="http://www.w3.org/1999/xlink" version="1.1" viewBox="0 0 102.6 102.6">
  <!-- Generator: Adobe Illustrator 29.4.0, SVG Export Plug-In . SVG Version: 2.1.0 Build 152)  -->
  <defs>
    <style>
      .st0 {
        fill: url(#linear-gradient);
      }
    </style>
    <linearGradient id="linear-gradient" x1="6.8" y1="78.3" x2="95.7" y2="27" gradientTransform="translate(0 104) scale(1 -1)" gradientUnits="userSpaceOnUse">
      <stop offset="0" stop-color="#fef3cc"/>
      <stop offset=".4" stop-color="#fad030"/>
      <stop offset=".5" stop-color="#fac054"/>
      <stop offset=".8" stop-color="#fa9cac"/>
      <stop offset=".9" stop-color="#fa84e4"/>
      <stop offset="1" stop-color="#fa7cfa"/>
    </linearGradient>
  </defs>
  <g id="Layer_1-2">
    <path class="st0" d="M51.3,0C38.1,0,26.1,5,17,13.1l28.1,13.1-4.8-13.2,4.7-1.7,7.7,21.3-21.3,7.8-1.7-4.7,13.3-4.8-29.8-13.9C5.5,25.4.6,36.5,0,48.8h74.9l-9.9-9.9,3.5-3.5,16,16-16,16-3.5-3.5,10.1-10.1H0c.6,12.3,5.5,23.4,13.2,32l29.8-13.9-13.3-4.8,1.7-4.7,21.3,7.7-7.7,21.3-4.7-1.7,4.8-13.2-28.1,13.1c9.1,8.2,21.1,13.1,34.2,13.1,28.3,0,51.3-23,51.3-51.3S79.6,0,51.3,0Z"/>
  </g>
</svg>